<svg width="48" height="48" viewBox="0 0 48 48" fill="none" xmlns="http://www.w3.org/2000/svg">
<circle cx="24" cy="24" r="24" fill="white"/>
<path fill-rule="evenodd" clip-rule="evenodd" d="M23.9998 17.1221L22.9243 16.0166C20.3998 13.4216 15.7708 14.3171 14.0998 17.5796C13.3153 19.1141 13.1383 21.3296 14.5708 24.1571C15.9508 26.8796 18.8218 30.1406 23.9998 33.6926C29.1778 30.1406 32.0473 26.8796 33.4288 24.1571C34.8613 21.3281 34.6858 19.1141 33.8998 17.5796C32.2288 14.3171 27.5998 13.4201 25.0753 16.0151L23.9998 17.1221ZM23.9998 35.5001C1.00034 20.3021 16.9183 8.44007 23.7358 14.7146C23.8258 14.7971 23.9143 14.8826 23.9998 14.9711C24.0845 14.8827 24.1725 14.7976 24.2638 14.7161C31.0798 8.43707 46.9993 20.3006 23.9998 35.5001Z" fill="#DC3545"/>
<path d="M23.9998 17.1221L22.9243 16.0166C20.3998 13.4216 15.7708 14.3171 14.0998 17.5796C13.3153 19.1141 13.1383 21.3296 14.5708 24.1571C15.9508 26.8796 18.8218 30.1406 23.9998 33.6926C29.1778 30.1406 32.0473 26.8796 33.4288 24.1571C34.8613 21.3281 34.6858 19.1141 33.8998 17.5796C32.2288 14.3171 27.5998 13.4201 25.0753 16.0151L23.9998 17.1221Z" fill=""/>
</svg>